<?xml version="1.0" encoding="UTF-8"?>
<svg version="1.1" viewBox="0 0 486.91 87.36" xmlns="http://www.w3.org/2000/svg">
<g transform="translate(-291.9 -296.07)">
<g transform="translate(193.89)">
<g transform="translate(-51.308 -44.253)" fill="#fff" style="font-variant-ligatures:none">
<path transform="matrix(1.6667 0 0 1.6667 -455.66 426)" d="m378.4-50.4h-15.408l14.328 33.696 7.704-17.64zm27.648 0-13.968 32.832-7.56 17.568h14.04l21.6-50.4z" style="font-variant-ligatures:none"/>
<path transform="matrix(1.6667 0 0 1.6667 -455.66 426)" d="m422.82-50.4v50.4h14.256v-50.4z" style="font-variant-ligatures:none"/>
<path transform="matrix(1.6667 0 0 1.6667 -455.66 426)" d="m458.02-39.096v39.096h14.256v-39.096h15.408v-11.304h-45.144v11.304z" style="font-variant-ligatures:none"/>
<path transform="matrix(1.6667 0 0 1.6667 -455.66 426)" d="m528.56-15.84c3.096-1.512 5.544-3.6 7.272-6.336 1.728-2.736 2.592-5.904 2.592-9.576 0-3.744-0.93599-7.056-2.736-9.864-1.872-2.808-4.464-4.968-7.776-6.48-3.384-1.512-7.344-2.304-11.88-2.304h-23.04v11.232h22.176c2.88 0 5.112 0.648 6.624 1.944 1.44 1.296 2.232 3.168 2.232 5.472 0 2.376-0.792 4.176-2.232 5.472-1.512 1.296-3.744 1.872-6.624 1.872h-22.176v24.408h14.256v-13.392h7.776l9.144 13.392h15.264z" style="font-variant-ligatures:none"/>
<path transform="matrix(1.6667 0 0 1.6667 -455.66 426)" d="m557.31-2.376c4.248 2.304 9.072 3.384 14.4 3.384s10.08-1.08 14.328-3.384c4.248-2.232 7.56-5.328 10.008-9.36 2.448-3.96 3.672-8.424 3.672-13.464 0-4.968-1.224-9.432-3.672-13.464-2.448-3.96-5.76-7.056-10.008-9.36-4.248-2.232-9-3.384-14.328-3.384s-10.152 1.152-14.4 3.384c-4.248 2.304-7.56 5.4-10.008 9.36-2.448 4.032-3.6 8.496-3.6 13.464 0 5.04 1.152 9.504 3.6 13.464 2.448 4.032 5.76 7.128 10.008 9.36zm21.312-10.224c-2.088 1.224-4.392 1.8-6.912 1.8-2.592 0-4.896-0.576-6.912-1.8-2.088-1.152-3.744-2.88-4.896-5.04-1.224-2.16-1.8-4.68-1.8-7.56 0-2.808 0.576-5.328 1.8-7.488 1.152-2.16 2.808-3.888 4.896-5.112 2.016-1.152 4.32-1.8 6.912-1.8 2.52 0 4.824 0.648 6.912 1.8 2.016 1.224 3.672 2.952 4.896 5.112 1.152 2.16 1.8 4.68 1.8 7.488 0 2.88-0.648 5.4-1.8 7.56-1.224 2.16-2.88 3.888-4.896 5.04z" style="font-variant-ligatures:none"/>
<path transform="matrix(1.6667 0 0 1.6667 -455.66 426)" d="m607.18 0h13.968v-8.496l-13.968-17.784zm33.984-50.4v9.144l13.968 16.848v-25.992zm0 26.856-22.248-26.856h-11.736v6.696l13.968 16.848 22.248 26.856h11.736v-5.832l-13.968-17.784z" style="font-variant-ligatures:none"/>
</g>
</g>
</g>
</svg>
